<?xml version="1.0" encoding="UTF-8"?>
<svg xmlns="http://www.w3.org/2000/svg" width="1680" height="1320" viewBox="0 0 1680 1320">
  <defs>
    <marker id="arrow" markerWidth="11" markerHeight="11" refX="9.5" refY="5.5" orient="auto">
      <path d="M 0 0 L 10 5.5 L 0 11 z" fill="context-stroke"/>
    </marker>
    <filter id="shadow" x="-10%" y="-10%" width="120%" height="130%">
      <feDropShadow dx="0" dy="2" stdDeviation="2" flood-color="#0F172A" flood-opacity="0.12"/>
    </filter>
  </defs>
  <style>
    text { font-family: 'Microsoft YaHei', 'Noto Sans CJK SC', 'PingFang SC', 'Segoe UI', Arial, sans-serif; letter-spacing: 0; }
  </style>
  <rect width="100%" height="100%" fill="#FFFFFF"/>
  <text x="60" y="46" text-anchor="start" font-size="24" font-weight="900" fill="#172033" opacity="1"><tspan x="60" dy="0">R5.2.2 Gateway 会话与资源状态图（no-legacy + 并发）</tspan></text>
  <rect x="70" y="82" width="730" height="880" rx="16" fill="#EFF6FF" stroke="#BFDBFE"/><rect x="840" y="82" width="760" height="880" rx="16" fill="#ECFDF5" stroke="#BBF7D0"/><text x="98" y="116" text-anchor="start" font-size="18" font-weight="900" fill="#1D4ED8" opacity="1"><tspan x="98" dy="0">Gateway 会话状态（公网入口）</tspan></text><text x="870" y="116" text-anchor="start" font-size="18" font-weight="900" fill="#065F46" opacity="1"><tspan x="870" dy="0">Agent/资源状态（并发容量）</tspan></text><g>
    <rect x="120" y="170" width="180" height="100" rx="10" fill="#FFFFFF" stroke="#334155" stroke-width="2"/>
    <text x="210" y="198" text-anchor="middle" font-size="16" font-weight="850" fill="#172033" opacity="1"><tspan x="210" dy="0">NoSession</tspan></text>
    <text x="210" y="225" text-anchor="middle" font-size="13" font-weight="400" fill="#334155" opacity="1"><tspan x="210" dy="0">无有效会话</tspan></text>
    <g>
    <rect x="175.8" y="240" width="68.39999999999999" height="22" rx="6" fill="#EEF2FF" stroke="#A5B4FC"/>
    <text x="210" y="255" text-anchor="middle" font-size="11" font-weight="800" fill="#3730A3">FR-CONN-002</text>
  </g>
  </g><g>
    <rect x="350" y="170" width="180" height="100" rx="10" fill="#FFFFFF" stroke="#2563EB" stroke-width="2"/>
    <text x="440" y="198" text-anchor="middle" font-size="16" font-weight="850" fill="#172033" opacity="1"><tspan x="440" dy="0">TicketIssued</tspan></text>
    <text x="440" y="225" text-anchor="middle" font-size="13" font-weight="400" fill="#334155" opacity="1"><tspan x="440" dy="0">HTTPS 鉴权通过，签发 beare</tspan><tspan x="440" dy="18">r；不占池</tspan></text>
    <g>
    <rect x="405.8" y="240" width="68.39999999999999" height="22" rx="6" fill="#EEF2FF" stroke="#A5B4FC"/>
    <text x="440" y="255" text-anchor="middle" font-size="11" font-weight="800" fill="#3730A3">FR-CONN-002</text>
  </g>
  </g><g>
    <rect x="580" y="170" width="180" height="100" rx="10" fill="#FFFFFF" stroke="#2563EB" stroke-width="2"/>
    <text x="670" y="198" text-anchor="middle" font-size="16" font-weight="850" fill="#172033" opacity="1"><tspan x="670" dy="0">WssConnecting</tspan></text>
    <text x="670" y="225" text-anchor="middle" font-size="13" font-weight="400" fill="#334155" opacity="1"><tspan x="670" dy="0">校验 Bearer、caps 枚举；拒</tspan><tspan x="670" dy="18">绝旧入口</tspan></text>
    <g>
    <rect x="597.6" y="240" width="68.39999999999999" height="22" rx="6" fill="#EEF2FF" stroke="#A5B4FC"/>
    <text x="631.8000000000001" y="255" text-anchor="middle" font-size="11" font-weight="800" fill="#3730A3">FR-CONN-003</text>
  </g><g>
    <rect x="674" y="240" width="68.39999999999999" height="22" rx="6" fill="#EEF2FF" stroke="#A5B4FC"/>
    <text x="708.2" y="255" text-anchor="middle" font-size="11" font-weight="800" fill="#3730A3">FR-CONN-005</text>
  </g>
  </g><g>
    <rect x="350" y="350" width="180" height="100" rx="10" fill="#FFFFFF" stroke="#059669" stroke-width="2"/>
    <text x="440" y="378" text-anchor="middle" font-size="16" font-weight="850" fill="#172033" opacity="1"><tspan x="440" dy="0">ActiveSession</tspan></text>
    <text x="440" y="405" text-anchor="middle" font-size="13" font-weight="400" fill="#334155" opacity="1"><tspan x="440" dy="0">WSS connected；可收发音频/</tspan><tspan x="440" dy="18">文本/控制帧</tspan></text>
    <g>
    <rect x="405.8" y="420" width="68.39999999999999" height="22" rx="6" fill="#EEF2FF" stroke="#A5B4FC"/>
    <text x="440" y="435" text-anchor="middle" font-size="11" font-weight="800" fill="#3730A3">FR-CONN-003</text>
  </g>
  </g><g>
    <rect x="120" y="530" width="180" height="100" rx="10" fill="#FFFBEB" stroke="#D97706" stroke-width="2"/>
    <text x="210" y="558" text-anchor="middle" font-size="16" font-weight="850" fill="#172033" opacity="1"><tspan x="210" dy="0">PendingReconnect</tspan></text>
    <text x="210" y="585" text-anchor="middle" font-size="13" font-weight="400" fill="#334155" opacity="1"><tspan x="210" dy="0">断链宽限窗口；会话保留</tspan></text>
    <g>
    <rect x="175.8" y="600" width="68.39999999999999" height="22" rx="6" fill="#EEF2FF" stroke="#A5B4FC"/>
    <text x="210" y="615" text-anchor="middle" font-size="11" font-weight="800" fill="#3730A3">FR-CONN-003</text>
  </g>
  </g><g>
    <rect x="580" y="530" width="180" height="100" rx="10" fill="#FEF2F2" stroke="#DC2626" stroke-width="2"/>
    <text x="670" y="558" text-anchor="middle" font-size="16" font-weight="850" fill="#172033" opacity="1"><tspan x="670" dy="0">Expired/Closed</tspan></text>
    <text x="670" y="585" text-anchor="middle" font-size="13" font-weight="400" fill="#334155" opacity="1"><tspan x="670" dy="0">bearer/session TTL 到期或</tspan><tspan x="670" dy="18">主动关闭</tspan></text>
    <g>
    <rect x="635.8" y="600" width="68.39999999999999" height="22" rx="6" fill="#EEF2FF" stroke="#A5B4FC"/>
    <text x="670" y="615" text-anchor="middle" font-size="11" font-weight="800" fill="#3730A3">FR-CONN-002</text>
  </g>
  </g><g>
    <rect x="350" y="710" width="180" height="100" rx="10" fill="#FEF2F2" stroke="#DC2626" stroke-width="2"/>
    <text x="440" y="738" text-anchor="middle" font-size="16" font-weight="850" fill="#172033" opacity="1"><tspan x="440" dy="0">Busy/Reject</tspan></text>
    <text x="440" y="765" text-anchor="middle" font-size="13" font-weight="400" fill="#334155" opacity="1"><tspan x="440" dy="0">容量不足或鉴权失败，返回明确</tspan><tspan x="440" dy="18">错误</tspan></text>
    <g>
    <rect x="405.8" y="780" width="68.39999999999999" height="22" rx="6" fill="#EEF2FF" stroke="#A5B4FC"/>
    <text x="440" y="795" text-anchor="middle" font-size="11" font-weight="800" fill="#3730A3">NFR-CAP-001</text>
  </g>
  </g><g>
    <rect x="910" y="170" width="180" height="100" rx="10" fill="#FFFFFF" stroke="#059669" stroke-width="2"/>
    <text x="1000" y="198" text-anchor="middle" font-size="16" font-weight="850" fill="#172033" opacity="1"><tspan x="1000" dy="0">HotSleep</tspan></text>
    <text x="1000" y="225" text-anchor="middle" font-size="13" font-weight="400" fill="#334155" opacity="1"><tspan x="1000" dy="0">休眠但 agent 热态保留；Dem</tspan><tspan x="1000" dy="18">o 默认</tspan></text>
    <g>
    <rect x="968" y="240" width="63.99999999999999" height="22" rx="6" fill="#EEF2FF" stroke="#A5B4FC"/>
    <text x="1000" y="255" text-anchor="middle" font-size="11" font-weight="800" fill="#3730A3">FR-OPS-003</text>
  </g>
  </g><g>
    <rect x="1160" y="170" width="180" height="100" rx="10" fill="#FFFFFF" stroke="#059669" stroke-width="2"/>
    <text x="1250" y="198" text-anchor="middle" font-size="16" font-weight="850" fill="#172033" opacity="1"><tspan x="1250" dy="0">AgentActive</tspan></text>
    <text x="1250" y="225" text-anchor="middle" font-size="13" font-weight="400" fill="#334155" opacity="1"><tspan x="1250" dy="0">Agent 绑定并处理实时交互</tspan></text>
    <g>
    <rect x="1215.8" y="240" width="68.39999999999999" height="22" rx="6" fill="#EEF2FF" stroke="#A5B4FC"/>
    <text x="1250" y="255" text-anchor="middle" font-size="11" font-weight="800" fill="#3730A3">FR-CONN-004</text>
  </g>
  </g><g>
    <rect x="910" y="350" width="180" height="100" rx="10" fill="#FFFFFF" stroke="#D97706" stroke-width="2"/>
    <text x="1000" y="378" text-anchor="middle" font-size="16" font-weight="850" fill="#172033" opacity="1"><tspan x="1000" dy="0">WarmSleep</tspan></text>
    <text x="1000" y="405" text-anchor="middle" font-size="13" font-weight="400" fill="#334155" opacity="1"><tspan x="1000" dy="0">生产闲置降温；降低资源占用</tspan></text>
    <g>
    <rect x="968" y="420" width="63.99999999999999" height="22" rx="6" fill="#EEF2FF" stroke="#A5B4FC"/>
    <text x="1000" y="435" text-anchor="middle" font-size="11" font-weight="800" fill="#3730A3">FR-OPS-003</text>
  </g>
  </g><g>
    <rect x="1160" y="350" width="180" height="100" rx="10" fill="#FFFBEB" stroke="#D97706" stroke-width="2"/>
    <text x="1250" y="378" text-anchor="middle" font-size="16" font-weight="850" fill="#172033" opacity="1"><tspan x="1250" dy="0">ReleasedIdle</tspan></text>
    <text x="1250" y="405" text-anchor="middle" font-size="13" font-weight="400" fill="#334155" opacity="1"><tspan x="1250" dy="0">释放 Agent；Gateway 保留会</tspan><tspan x="1250" dy="18">话元数据</tspan></text>
    <g>
    <rect x="1218" y="420" width="63.99999999999999" height="22" rx="6" fill="#EEF2FF" stroke="#A5B4FC"/>
    <text x="1250" y="435" text-anchor="middle" font-size="11" font-weight="800" fill="#3730A3">FR-OPS-003</text>
  </g>
  </g><g>
    <rect x="1035" y="560" width="180" height="100" rx="10" fill="#FFFFFF" stroke="#2563EB" stroke-width="2"/>
    <text x="1125" y="588" text-anchor="middle" font-size="16" font-weight="850" fill="#172033" opacity="1"><tspan x="1125" dy="0">Allocating</tspan></text>
    <text x="1125" y="615" text-anchor="middle" font-size="13" font-weight="400" fill="#334155" opacity="1"><tspan x="1125" dy="0">唤醒后分配/恢复 Agent</tspan></text>
    <g>
    <rect x="1090.8" y="630" width="68.39999999999999" height="22" rx="6" fill="#EEF2FF" stroke="#A5B4FC"/>
    <text x="1125" y="645" text-anchor="middle" font-size="11" font-weight="800" fill="#3730A3">FR-CONN-004</text>
  </g>
  </g><g>
    <rect x="1285" y="560" width="180" height="100" rx="10" fill="#FEF2F2" stroke="#DC2626" stroke-width="2"/>
    <text x="1375" y="588" text-anchor="middle" font-size="16" font-weight="850" fill="#172033" opacity="1"><tspan x="1375" dy="0">ResourceDenied</tspan></text>
    <text x="1375" y="615" text-anchor="middle" font-size="13" font-weight="400" fill="#334155" opacity="1"><tspan x="1375" dy="0">无可用资源，通知客户端降级/</tspan><tspan x="1375" dy="18">忙线</tspan></text>
    <g>
    <rect x="1340.8" y="630" width="68.39999999999999" height="22" rx="6" fill="#EEF2FF" stroke="#A5B4FC"/>
    <text x="1375" y="645" text-anchor="middle" font-size="11" font-weight="800" fill="#3730A3">NFR-CAP-001</text>
  </g>
  </g><g>
    <rect x="910" y="740" width="430" height="114" rx="10" fill="#FFFFFF" stroke="#7C3AED" stroke-width="2"/>
    <text x="1125" y="768" text-anchor="middle" font-size="16" font-weight="850" fill="#172033" opacity="1"><tspan x="1125" dy="0">Command Gate</tspan></text>
    <text x="1125" y="795" text-anchor="middle" font-size="13" font-weight="400" fill="#334155" opacity="1"><tspan x="1125" dy="0">仅 ActiveSession + AgentActive + caps_ok + 非休眠，或明确允许的</tspan><tspan x="1125" dy="18">配置命令，才可发 data.cmd。</tspan></text>
    <g>
    <rect x="1057" y="824" width="63.99999999999999" height="22" rx="6" fill="#EEF2FF" stroke="#A5B4FC"/>
    <text x="1089" y="839" text-anchor="middle" font-size="11" font-weight="800" fill="#3730A3">FR-CMD-006</text>
  </g><g>
    <rect x="1129" y="824" width="63.99999999999999" height="22" rx="6" fill="#EEF2FF" stroke="#A5B4FC"/>
    <text x="1161" y="839" text-anchor="middle" font-size="11" font-weight="800" fill="#3730A3">FR-CMD-008</text>
  </g>
  </g><g>
    <path d="M 300 220 L 350 220" fill="none" stroke="#2563EB" stroke-width="2" marker-end="url(#arrow)"/>
    <text x="325" y="212" text-anchor="middle" font-size="12" font-weight="400" fill="#172033" opacity="1"><tspan x="325" dy="0">create_session</tspan><tspan x="325" dy="15">鉴权成功</tspan></text>
  </g><g>
    <path d="M 530 220 L 580 220" fill="none" stroke="#2563EB" stroke-width="2" marker-end="url(#arrow)"/>
    <text x="555" y="212" text-anchor="middle" font-size="12" font-weight="400" fill="#172033" opacity="1"><tspan x="555" dy="0">WSS connect</tspan></text>
  </g><g>
    <path d="M 670 270 L 670 330 L 440 330 L 440 350" fill="none" stroke="#059669" stroke-width="2" marker-end="url(#arrow)"/>
    <text x="555" y="322" text-anchor="middle" font-size="12" font-weight="400" fill="#059669" opacity="1"><tspan x="555" dy="0">bearer/caps enum OK</tspan></text>
  </g><g>
    <path d="M 440 450 L 440 530" fill="none" stroke="#D97706" stroke-width="2" marker-end="url(#arrow)"/>
    <text x="440" y="482" text-anchor="middle" font-size="12" font-weight="400" fill="#172033" opacity="1"><tspan x="440" dy="0">断链</tspan></text>
  </g><g>
    <path d="M 210 530 L 210 500 L 350 500 L 350 400" fill="none" stroke="#059669" stroke-width="2" marker-end="url(#arrow)" stroke-dasharray="7 6"/>
    <text x="280" y="492" text-anchor="middle" font-size="12" font-weight="400" fill="#059669" opacity="1"><tspan x="280" dy="0">宽限内重连</tspan></text>
  </g><g>
    <path d="M 300 580 L 580 580" fill="none" stroke="#DC2626" stroke-width="2" marker-end="url(#arrow)"/>
    <text x="440" y="572" text-anchor="middle" font-size="12" font-weight="400" fill="#172033" opacity="1"><tspan x="440" dy="0">grace timeout</tspan></text>
  </g><g>
    <path d="M 670 270 L 670 530" fill="none" stroke="#DC2626" stroke-width="2" marker-end="url(#arrow)" stroke-dasharray="7 6"/>
    <text x="670" y="392" text-anchor="middle" font-size="12" font-weight="400" fill="#172033" opacity="1"><tspan x="670" dy="0">TTL/close</tspan></text>
  </g><g>
    <path d="M 210 270 L 210 755 L 350 755" fill="none" stroke="#DC2626" stroke-width="2" marker-end="url(#arrow)" stroke-dasharray="7 6"/>
    <text x="280" y="747" text-anchor="middle" font-size="12" font-weight="400" fill="#DC2626" opacity="1"><tspan x="280" dy="0">鉴权失败</tspan></text>
  </g><g>
    <path d="M 530 755 L 580 580" fill="none" stroke="#DC2626" stroke-width="2" marker-end="url(#arrow)" stroke-dasharray="7 6"/>
    <text x="555" y="659.5" text-anchor="middle" font-size="12" font-weight="400" fill="#172033" opacity="1"><tspan x="555" dy="0">错误关闭</tspan></text>
  </g><g>
    <path d="M 1090 220 L 1160 220" fill="none" stroke="#059669" stroke-width="2" marker-end="url(#arrow)"/>
    <text x="1125" y="212" text-anchor="middle" font-size="12" font-weight="400" fill="#172033" opacity="1"><tspan x="1125" dy="0">wake/active</tspan></text>
  </g><g>
    <path d="M 1000 270 L 1000 350" fill="none" stroke="#D97706" stroke-width="2" marker-end="url(#arrow)" stroke-dasharray="7 6"/>
    
  </g><text x="1018" y="315" text-anchor="start" font-size="12" font-weight="400" fill="#D97706" opacity="1"><tspan x="1018" dy="0">生产 idle</tspan></text><g>
    <path d="M 1250 270 L 1410 270 L 1410 350 L 1090 350" fill="none" stroke="#D97706" stroke-width="2" marker-end="url(#arrow)"/>
    <text x="1430" y="302" text-anchor="middle" font-size="12" font-weight="400" fill="#D97706" opacity="1"><tspan x="1430" dy="0">休眠超时</tspan></text>
  </g><g>
    <path d="M 1090 400 L 1160 400" fill="none" stroke="#D97706" stroke-width="2" marker-end="url(#arrow)"/>
    <text x="1125" y="392" text-anchor="middle" font-size="12" font-weight="400" fill="#172033" opacity="1"><tspan x="1125" dy="0">容量压力</tspan></text>
  </g><g>
    <path d="M 1250 450 L 1250 520 L 1125 520 L 1125 560" fill="none" stroke="#2563EB" stroke-width="2" marker-end="url(#arrow)"/>
    <text x="1203.5" y="512" text-anchor="middle" font-size="12" font-weight="400" fill="#2563EB" opacity="1"><tspan x="1203.5" dy="0">唤醒恢复</tspan></text>
  </g><g>
    <path d="M 1125 560 L 1125 490 L 1250 490 L 1250 270" fill="none" stroke="#059669" stroke-width="2" marker-end="url(#arrow)"/>
    <text x="1213.5" y="482" text-anchor="middle" font-size="12" font-weight="400" fill="#059669" opacity="1"><tspan x="1213.5" dy="0">分配成功</tspan></text>
  </g><g>
    <path d="M 1215 610 L 1285 610" fill="none" stroke="#DC2626" stroke-width="2" marker-end="url(#arrow)"/>
    <text x="1250" y="602" text-anchor="middle" font-size="12" font-weight="400" fill="#172033" opacity="1"><tspan x="1250" dy="0">无资源</tspan></text>
  </g><g>
    <path d="M 1215 646 L 530 755" fill="none" stroke="#DC2626" stroke-width="2" marker-end="url(#arrow)" stroke-dasharray="7 6"/>
    <text x="872.5" y="692.5" text-anchor="middle" font-size="12" font-weight="400" fill="#172033" opacity="1"><tspan x="872.5" dy="0">busy/reject</tspan></text>
  </g><g>
    <path d="M 440 450 L 440 796 L 910 796" fill="none" stroke="#7C3AED" stroke-width="2" marker-end="url(#arrow)"/>
    <text x="675" y="788" text-anchor="middle" font-size="12" font-weight="400" fill="#7C3AED" opacity="1"><tspan x="675" dy="0">会话与资源均可用</tspan></text>
  </g><g>
    <path d="M 1160 796 L 910 796" fill="none" stroke="#7C3AED" stroke-width="2" marker-end="url(#arrow)"/>
    <text x="1035" y="788" text-anchor="middle" font-size="12" font-weight="400" fill="#172033" opacity="1"><tspan x="1035" dy="0">gate check</tspan></text>
  </g><rect x="110" y="1010" width="1300" height="34" rx="8" fill="#334155"/><text x="126" y="1033" text-anchor="start" font-size="14" font-weight="850" fill="#FFFFFF" opacity="1"><tspan x="126" dy="0">会话/资源组合策略</tspan></text><rect x="110" y="1050" width="190" height="34" fill="#E2E8F0" stroke="#CBD5E1"/><text x="120" y="1071" text-anchor="start" font-size="12" font-weight="800" fill="#172033" opacity="1"><tspan x="120" dy="0">条件</tspan></text><rect x="300" y="1050" width="300" height="34" fill="#E2E8F0" stroke="#CBD5E1"/><text x="310" y="1071" text-anchor="start" font-size="12" font-weight="800" fill="#172033" opacity="1"><tspan x="310" dy="0">Gateway 决策</tspan></text><rect x="600" y="1050" width="300" height="34" fill="#E2E8F0" stroke="#CBD5E1"/><text x="610" y="1071" text-anchor="start" font-size="12" font-weight="800" fill="#172033" opacity="1"><tspan x="610" dy="0">资源决策</tspan></text><rect x="900" y="1050" width="510" height="34" fill="#E2E8F0" stroke="#CBD5E1"/><text x="910" y="1071" text-anchor="start" font-size="12" font-weight="800" fill="#172033" opacity="1"><tspan x="910" dy="0">对客户端表现</tspan></text><rect x="110" y="1084" width="190" height="34" fill="#FFFFFF" stroke="#CBD5E1"/><text x="120" y="1105" text-anchor="start" font-size="11" font-weight="500" fill="#334155" opacity="1"><tspan x="120" dy="0">sleep</tspan></text><rect x="300" y="1084" width="300" height="34" fill="#FFFFFF" stroke="#CBD5E1"/><text x="310" y="1105" text-anchor="start" font-size="11" font-weight="500" fill="#334155" opacity="1"><tspan x="310" dy="0">WSS 保持，session 不关闭</tspan></text><rect x="600" y="1084" width="300" height="34" fill="#FFFFFF" stroke="#CBD5E1"/><text x="610" y="1105" text-anchor="start" font-size="11" font-weight="500" fill="#334155" opacity="1"><tspan x="610" dy="0">Demo Hot；生产可 Warm/Released</tspan></text><rect x="900" y="1084" width="510" height="34" fill="#FFFFFF" stroke="#CBD5E1"/><text x="910" y="1105" text-anchor="start" font-size="11" font-weight="500" fill="#334155" opacity="1"><tspan x="910" dy="0">GUI 显示 connected + sleep</tspan></text><rect x="110" y="1118" width="190" height="34" fill="#F8FAFC" stroke="#CBD5E1"/><text x="120" y="1139" text-anchor="start" font-size="11" font-weight="500" fill="#334155" opacity="1"><tspan x="120" dy="0">disconnect</tspan></text><rect x="300" y="1118" width="300" height="34" fill="#F8FAFC" stroke="#CBD5E1"/><text x="310" y="1139" text-anchor="start" font-size="11" font-weight="500" fill="#334155" opacity="1"><tspan x="310" dy="0">PendingReconnect 宽限</tspan></text><rect x="600" y="1118" width="300" height="34" fill="#F8FAFC" stroke="#CBD5E1"/><text x="610" y="1139" text-anchor="start" font-size="11" font-weight="500" fill="#334155" opacity="1"><tspan x="610" dy="0">未 ack 命令 failed/no replay</tspan></text><rect x="900" y="1118" width="510" height="34" fill="#F8FAFC" stroke="#CBD5E1"/><text x="910" y="1139" text-anchor="start" font-size="11" font-weight="500" fill="#334155" opacity="1"><tspan x="910" dy="0">重连后继续新命令</tspan></text><rect x="110" y="1152" width="190" height="34" fill="#FFFFFF" stroke="#CBD5E1"/><text x="120" y="1173" text-anchor="start" font-size="11" font-weight="500" fill="#334155" opacity="1"><tspan x="120" dy="0">wake after warm</tspan></text><rect x="300" y="1152" width="300" height="34" fill="#FFFFFF" stroke="#CBD5E1"/><text x="310" y="1173" text-anchor="start" font-size="11" font-weight="500" fill="#334155" opacity="1"><tspan x="310" dy="0">接受状态标签(wake)</tspan></text><rect x="600" y="1152" width="300" height="34" fill="#FFFFFF" stroke="#CBD5E1"/><text x="610" y="1173" text-anchor="start" font-size="11" font-weight="500" fill="#334155" opacity="1"><tspan x="610" dy="0">尝试恢复/分配 Agent</tspan></text><rect x="900" y="1152" width="510" height="34" fill="#FFFFFF" stroke="#CBD5E1"/><text x="910" y="1173" text-anchor="start" font-size="11" font-weight="500" fill="#334155" opacity="1"><tspan x="910" dy="0">成功进入 dialogue；失败返回 busy</tspan></text><rect x="110" y="1186" width="190" height="34" fill="#F8FAFC" stroke="#CBD5E1"/><text x="120" y="1207" text-anchor="start" font-size="11" font-weight="500" fill="#334155" opacity="1"><tspan x="120" dy="0">capacity full</tspan></text><rect x="300" y="1186" width="300" height="34" fill="#F8FAFC" stroke="#CBD5E1"/><text x="310" y="1207" text-anchor="start" font-size="11" font-weight="500" fill="#334155" opacity="1"><tspan x="310" dy="0">create/wake 明确拒绝</tspan></text><rect x="600" y="1186" width="300" height="34" fill="#F8FAFC" stroke="#CBD5E1"/><text x="610" y="1207" text-anchor="start" font-size="11" font-weight="500" fill="#334155" opacity="1"><tspan x="610" dy="0">不抢占活跃会话</tspan></text><rect x="900" y="1186" width="510" height="34" fill="#F8FAFC" stroke="#CBD5E1"/><text x="910" y="1207" text-anchor="start" font-size="11" font-weight="500" fill="#334155" opacity="1"><tspan x="910" dy="0">返回 data.error/ctrl.state</tspan></text><rect x="110" y="1220" width="190" height="34" fill="#FFFFFF" stroke="#CBD5E1"/><text x="120" y="1241" text-anchor="start" font-size="11" font-weight="500" fill="#334155" opacity="1"><tspan x="120" dy="0">bad caps / old entry / JSON</tspan><tspan x="120" dy="14"> 8193</tspan></text><rect x="300" y="1220" width="300" height="34" fill="#FFFFFF" stroke="#CBD5E1"/><text x="310" y="1241" text-anchor="start" font-size="11" font-weight="500" fill="#334155" opacity="1"><tspan x="310" dy="0">protocol_error close 4400</tspan></text><rect x="600" y="1220" width="300" height="34" fill="#FFFFFF" stroke="#CBD5E1"/><text x="610" y="1241" text-anchor="start" font-size="11" font-weight="500" fill="#334155" opacity="1"><tspan x="610" dy="0">不分配 Agent</tspan></text><rect x="900" y="1220" width="510" height="34" fill="#FFFFFF" stroke="#CBD5E1"/><text x="910" y="1241" text-anchor="start" font-size="11" font-weight="500" fill="#334155" opacity="1"><tspan x="910" dy="0">SDK 重新按 R5.2.2 建会话</tspan></text>
</svg>